# xmcd
#
# Track frame offsets: 
#        150
#        19892
#        34700
#        50055
#        62335
#        78667
#        94522
#        111625
#        125427
#        139972
#        159072
#        179195
#        190485
#
# Disc length: 2853 seconds
#
# Revision: 4
# Processed by: cddbd v1.5.2PL0 Copyright (c) Steve Scherf et al.
# Submitted via: ExactAudioCopy v0.99pb5
#
DISCID=b80b230d
DTITLE=Various Artist - Romantic CD2 - Western Romantic
DYEAR=2001
DGENRE=New Age
TTITLE0=Kevin Kern - Return To Love
TTITLE1=David Lanz - Return To The Heart
TTITLE2=Brian Crain - Butterfly Waltz
TTITLE3=Steve Raiman - Songbird
TTITLE4=Sweetbone - When I'm Dreaming
TTITLE5=Secret Garden - Song From A Secret Garden
TTITLE6=Susanne Lundeng - Jeg Ser Beg Sote Lam
TTITLE7=Jean-Philippe Audin - Toute Une Vie
TTITLE8=Michael Hoppe ¡¤ Tim Wheater - Beyond The Valley
TTITLE9=Dave Koz - Deeper Than Love
TTITLE10=Paul Mauriat - Say Yes
TTITLE11=Blackmore's Night - Durch Den Wald Zum Bach Haus
TTITLE12=The West Coast - Ave Maria
EXTD=YEAR: 2001
EXTT0=
EXTT1=
EXTT2=
EXTT3=
EXTT4=
EXTT5=
EXTT6=
EXTT7=
EXTT8=
EXTT9=
EXTT10=
EXTT11=
EXTT12=
PLAYORDER=
